<svg xmlns="http://www.w3.org/2000/svg" width="60" height="60" viewBox="0 0 60 60">
    <rect width="60" height="60" fill="#E60023" rx="8"/>
    <path fill="white" d="M30 12c-9.941 0-18 8.059-18 18 0 7.605 4.744 14.14 11.44 16.762-.157-1.423-.3-3.608.063-5.161.327-1.406 2.11-8.945 2.11-8.945s-.538-1.078-.538-2.673c0-2.502 1.45-4.372 3.256-4.372 1.534 0 2.277 1.153 2.277 2.535 0 1.544-.982 3.851-1.491 5.993-.424 1.791.898 3.253 2.665 3.253 3.199 0 5.658-3.374 5.658-8.243 0-4.31-3.096-7.323-7.518-7.323-5.121 0-8.127 3.842-8.127 7.811 0 1.546.596 3.207 1.34 4.107a.54.54 0 01.124.518l-.5 2.04c-.079.33-.261.401-.603.242-2.248-1.047-3.654-4.333-3.654-6.973 0-5.678 4.125-10.89 11.894-10.89 6.245 0 11.097 4.451 11.097 10.397 0 6.204-3.911 11.195-9.341 11.195-1.824 0-3.539-.948-4.125-2.067l-1.122 4.278c-.406 1.565-1.503 3.525-2.238 4.719 1.687.491 3.475.738 5.327.738 9.941 0 18-8.059 18-18S39.941 12 30 12z"/>
</svg>
